PathFileType	4	(X/Y/Z)	C:/Users/beibeiliu/ov580/test_trc/User2\sequence.43_training_dense_left.trc
DataRate	CameraRate	NumFrames	NumMarkers	Units	OrigDataRate	OrigDataStartFrame	OrigNumFrames
120	120	10	19	mm	120	54	107
Frame#	Time	ThumbCMC			ThumbMCP			ThumbIP			ThumbTip			IndexMCP			IndexPIP			IndexTip			MiddleMCP			MiddlePIP			MiddleTip			RingMCP			RingPIP			RingTip			PinkyMCP			PinkyPIP			PinkyTip			BackHand1			BackHand2			BackHand3	
		X0	Y0	Z0	X1	Y1	Z1	X2	Y2	Z2	X3	Y3	Z3	X4	Y4	Z4	X5	Y5	Z5	X6	Y6	Z6	X7	Y7	Z7	X8	Y8	Z8	X9	Y9	Z9	X10	Y10	Z10	X11	Y11	Z11	X12	Y12	Z12	X13	Y13	Z13	X14	Y14	Z14	X15	Y15	Z15	X16	Y16	Z16	X17	Y17	Z17	X18	Y18	Z18	
53	0.441667	-184.559	29.6739	24.5499	-175.083	40.2125	-15.9276	-172.413	54.2392	-50.2255	-184.15	62.5814	-70.6835	-185.142	96.3873	-15.5539	-169.574	80.2904	-42.1936	-165.448	48.1757	-35.5614	-199.013	100.808	-29.019	-184.144	94.6864	-60.9783	-170.577	71.9322	-83.7317	-217.849	92.4847	-37.8105	-206.447	89.507	-64.6225	-187.002	79.0208	-85.096	-230.635	68.3726	-43.6583	-207.284	46.0222	-56.0936	-200.548	21.2899	-38.3374	-248.672	61.1361	15.4141	-253.708	37.346	36.0435	-216.516	59.2502	42.184	
54	0.45	-184.867	33.7889	22.5401	-177.066	38.1976	-13.7973	-173.029	53.3143	-48.5516	-183.819	62.3459	-70.187	-186.411	96.9749	-16.1645	-170.681	79.0218	-43.5332	-167.629	48.3655	-35.0413	-205.701	100.124	-28.8703	-185.703	94.8126	-60.3932	-170.942	74.2461	-84.4154	-224.118	90.3064	-38.4046	-208.825	88.0379	-67.8763	-188.437	76.4205	-85.2355	-231.504	67.7356	-45.5565	-209.896	46.5569	-57.3049	-201.901	23.3026	-37.7558	-248.414	62.6746	15.1712	-254.558	34.2373	35.1692	-216.772	56.4618	41.7868	
55	0.458333	-187.392	32.9446	23.3958	-176.823	41.0371	-15.2873	-176.219	53.9102	-46.3802	-178.351	65.3666	-72.6037	-189.28	97.9878	-13.2337	-173.839	82.9815	-40.9786	-169.167	49.1954	-34.5508	-204.482	101.804	-25.531	-186.324	98.9713	-57.8329	-176.287	80.8405	-82.7798	-223.269	92.5953	-33.3233	-207.702	89.9895	-66.922	-189.327	77.2497	-84.1364	-235.524	69.8039	-43.9576	-211.761	52.8134	-57.5478	-202.233	22.3913	-40.1818	-245.704	61.8075	17.4013	-251.352	37.3757	37.7042	-219.787	55.6387	45.5737	
56	0.466667	-186.126	37.9181	24.2863	-176.019	44.1864	-13.6079	-172.233	58.3065	-46.1336	-172.554	65.5522	-69.2993	-187.882	102.278	-13.1217	-171.938	88.4045	-38.5916	-165.42	56.0353	-36.7868	-206.011	105.281	-25.9282	-189.637	101.225	-58.038	-175.672	83.3534	-84.2058	-225.247	93.8603	-32.8724	-208.568	91.8847	-65.0247	-185.876	78.9329	-82.5138	-236.912	72.663	-38.5033	-213.35	59.3197	-58.155	-199.777	29.3531	-46.0874	-250.232	65.757	14.5703	-255.824	35.8911	38.8717	-218.243	59.9341	43.5667	
57	0.475	-188.164	38.947	27.6181	-178.237	46.3899	-9.30185	-175.926	61.5858	-44.0009	-171.089	67.5949	-66.0757	-189.555	105.759	-14.7965	-175.613	93.3606	-39.9458	-163.732	61.4522	-40.5384	-210.754	108.249	-26.5415	-194.243	106.847	-54.6142	-173.188	86.3284	-82.2161	-224.94	98.1797	-37.2063	-208.077	97.4297	-62.8486	-187.505	82.5938	-78.3704	-238.382	74.4896	-41.3775	-212.444	61.8712	-62.9323	-195.755	37.3324	-54.5115	-250.951	62.4257	13.1985	-252.854	39.1659	38.3642	-223.712	61.1485	44.2459	
58	0.483333	-186.692	47.2101	30.8081	-176.483	52.0759	-6.76735	-167.381	62.9471	-37.8326	-159.795	70.1232	-62.2238	-199.483	110.3	-15.5142	-180.995	104.708	-41.7126	-160.522	74.3711	-50.4956	-218.287	107.535	-29.7827	-193.274	106.254	-61.4128	-169.328	85.2633	-78.631	-231.739	95.1554	-39.9326	-209.746	94.6701	-67.011	-184.993	78.4741	-74.6281	-239.344	72.0797	-46.6106	-211.764	67.2532	-64.3957	-190.232	42.0715	-55.5914	-250.971	64.0216	8.72164	-256.582	36.1436	32.6602	-230.677	65.7554	39.3264	
59	0.491667	-190.265	54.4319	35.463	-173.533	59.4989	1.28344	-159.238	70.3535	-27.7112	-150.064	76.9659	-51.8023	-203.675	115.049	-22.428	-181.564	113.934	-45.7802	-165.069	95.4657	-59.7949	-222.647	104.871	-40.4154	-196.756	103.039	-63.6159	-170.831	73.4699	-68.9064	-232.328	88.9052	-50.3034	-205.381	86.0742	-69.3125	-179.384	61.5021	-63.7787	-238.722	62.8209	-49.694	-206.395	59.5228	-68.049	-189.191	42.5864	-53.5713	-257.397	53.3259	2.41948	-260.951	33.9416	27.3904	-235.327	68.8134	36.526	
60	0.5	-196.745	63.0511	41.2439	-174.813	71.2762	15.6731	-152.439	87.9092	-11.128	-142.132	93.2354	-30.3459	-215.76	109.782	-25.1223	-198.103	116.562	-52.0768	-172.249	106.958	-74.0782	-221.91	97.5954	-45.4267	-194.339	88.5396	-65.764	-166.609	61.2115	-46.7732	-229.184	75.8364	-56.3779	-199.831	67.4017	-69.8708	-181.282	50.9035	-46.0895	-233.997	52.6493	-53.79	-203.389	47.6462	-67.6008	-185.18	33.4955	-45.2313	-255.816	52.0771	-3.92656	-260.067	30.9846	27.2822	-242.179	64.3346	28.0719	
61	0.508333	-204.303	70.0583	43.1407	-180.744	84.4959	27.8922	-158.721	104.023	10.4388	-142.59	117.221	-7.70688	-221.806	101.936	-34.3122	-206.837	111.355	-61.828	-184.849	113.566	-83.2561	-216.074	83.6316	-53.5106	-184.036	68.4815	-61.1615	-172.968	49.9234	-27.8174	-221.889	57.8148	-60.0426	-189.59	51.0851	-62.2244	-185.535	36.326	-28.2563	-226.779	36.195	-59.5959	-192.819	32.737	-58.5175	-189.487	28.1451	-27.6028	-255.599	44.0085	-9.65561	-260.364	29.2624	21.9012	-245.148	66.6868	27.6263	
62	0.516667	-215.46	72.0875	42.4866	-196.557	94.5462	28.0656	-179.192	115.41	15.9365	-163.907	134.59	1.63769	-223.132	94.4082	-45.1987	-211.578	101.815	-68.5485	-193.129	102.811	-95.7573	-211.799	69.3256	-55.8949	-175.966	57.1018	-52.6498	-178.26	42.1491	-16.3879	-210.204	43.4014	-60.1544	-180.85	38.6349	-52.3643	-189.17	32.0046	-14.5932	-216.353	23.0228	-55.3851	-184.252	20.0684	-44.2693	-193.014	20.4187	-10.9965	-256.303	35.9115	-8.60626	-260.953	25.6738	21.0769	-248.927	61.4126	18.9644	
